<?xml version="1.0" encoding="utf-8"?>
<!-- Generator: Adobe Illustrator 27.7.0, SVG Export Plug-In . SVG Version: 6.00 Build 0)  -->
<svg version="1.1" id="Layer_1" xmlns="http://www.w3.org/2000/svg" xmlns:xlink="http://www.w3.org/1999/xlink" x="0px" y="0px"
	 viewBox="0 0 640 480" style="enable-background:new 0 0 640 480;" xml:space="preserve">
<style type="text/css">
	
		.st0{fill-rule:evenodd;clip-rule:evenodd;fill:url(#shapePath1_00000044159924389139253840000008870784923988043706_);stroke:#7DA898;stroke-linecap:round;stroke-miterlimit:2;}
	
		.st1{fill-rule:evenodd;clip-rule:evenodd;fill:url(#shapePath3_00000137849869423241950160000012552411780082333313_);stroke:#625371;stroke-linecap:round;stroke-miterlimit:2;}
	
		.st2{fill-rule:evenodd;clip-rule:evenodd;fill:url(#shapePath4_00000010995545129587279950000014341561134238037137_);stroke:#DABCFF;stroke-linecap:round;stroke-miterlimit:2;}
	
		.st3{fill-rule:evenodd;clip-rule:evenodd;fill:url(#shapePath5_00000032628812915703304660000004053620259715745674_);stroke:#DABCFF;stroke-linecap:round;stroke-miterlimit:2;}
	
		.st4{fill-rule:evenodd;clip-rule:evenodd;fill:url(#shapePath6_00000073690945315888458440000004216415428966580105_);stroke:#DABCFF;stroke-linecap:round;stroke-miterlimit:2;}
	
		.st5{fill-rule:evenodd;clip-rule:evenodd;fill:url(#shapePath7_00000084503844330573011120000016228991005698618037_);stroke:#DABCFF;stroke-linecap:round;stroke-miterlimit:2;}
	
		.st6{fill-rule:evenodd;clip-rule:evenodd;fill:url(#shapePath8_00000102543996083919238450000004770120650360326290_);stroke:#DABCFF;stroke-linecap:round;stroke-miterlimit:2;}
	.st7{fill-rule:evenodd;clip-rule:evenodd;fill:url(#SVGID_1_);}
	.st8{fill:none;stroke:#000000;stroke-linecap:round;stroke-miterlimit:2;}
	.st9{fill:none;stroke:#000000;stroke-linecap:round;stroke-miterlimit:2;stroke-dasharray:4.9429,4.9429;}
	.st10{fill-rule:evenodd;clip-rule:evenodd;fill:url(#SVGID_00000131328834522379554230000001024347126858768308_);}
	.st11{fill:none;stroke:#000000;stroke-linecap:round;stroke-miterlimit:2;stroke-dasharray:5.0292,5.0292;}
	.st12{fill-rule:evenodd;clip-rule:evenodd;fill:url(#SVGID_00000010278590200753112280000004814805664016453768_);}
	.st13{fill:none;stroke:#000000;stroke-linecap:round;stroke-miterlimit:2;stroke-dasharray:4.9526,4.9526;}
	.st14{fill:none;stroke:#000000;stroke-linecap:round;stroke-miterlimit:2;stroke-dasharray:5.2846,5.2846;}
	.st15{fill-rule:evenodd;clip-rule:evenodd;fill:url(#SVGID_00000078046454677546164350000010245259992256445119_);}
	.st16{fill:none;stroke:#000000;stroke-linecap:round;stroke-miterlimit:2;stroke-dasharray:5.0521,5.0521;}
	.st17{fill:none;stroke:#000000;stroke-linecap:round;stroke-miterlimit:2;stroke-dasharray:4.3837,4.3837;}
	.st18{fill-rule:evenodd;clip-rule:evenodd;fill:url(#SVGID_00000064340739238233438120000005423397936693780378_);}
	.st19{fill:none;stroke:#000000;stroke-miterlimit:10;}
	.st20{fill-rule:evenodd;clip-rule:evenodd;fill:#DDC0F6;}
	.st21{fill:url(#SVGID_00000108287118510321069910000011754110353706071192_);}
	.st22{fill:none;}
	
		.st23{fill-rule:evenodd;clip-rule:evenodd;fill:url(#shapePath1_00000161595244821399230480000000469285661991623082_);stroke:#DABCFF;stroke-linecap:round;stroke-miterlimit:2;}
	.st24{fill:url(#SVGID_00000090996634043430941040000004755279291409834672_);}
	.st25{fill-rule:evenodd;clip-rule:evenodd;fill:url(#SVGID_00000023967356722379302650000005192673786469629870_);}
	.st26{fill:none;stroke:#000000;stroke-linecap:round;stroke-miterlimit:2;stroke-dasharray:5.037,5.037;}
	.st27{fill-rule:evenodd;clip-rule:evenodd;fill:url(#SVGID_00000127742464161047787710000015675474266950298290_);}
	.st28{fill:none;stroke:#000000;stroke-linecap:round;stroke-miterlimit:2;stroke-dasharray:5.0022,5.0022;}
	.st29{fill-rule:evenodd;clip-rule:evenodd;fill:url(#SVGID_00000177457891103129425120000017416692038896099715_);}
	.st30{fill:none;stroke:#000000;stroke-linecap:round;stroke-miterlimit:2;stroke-dasharray:4.9055,4.9055;}
	.st31{fill:none;stroke:#000000;stroke-linecap:round;stroke-miterlimit:2;stroke-dasharray:4.2372,4.2372;}
	.st32{fill-rule:evenodd;clip-rule:evenodd;fill:url(#SVGID_00000129177697400956176400000015502104716990023565_);}
	.st33{fill:none;stroke:#000000;stroke-linecap:round;stroke-miterlimit:2;stroke-dasharray:4.8741,4.8741;}
	.st34{fill:none;stroke:#000000;stroke-linecap:round;stroke-miterlimit:2;stroke-dasharray:3.8289,3.8289;}
	.st35{fill-rule:evenodd;clip-rule:evenodd;fill:url(#SVGID_00000078014805765924864100000006511755344776478361_);}
	.st36{fill-rule:evenodd;clip-rule:evenodd;fill:#DFC8A4;}
	.st37{fill-rule:evenodd;clip-rule:evenodd;fill:#D7AE9E;}
	.st38{fill:none;stroke:#000000;stroke-miterlimit:10;stroke-dasharray:5.0158,5.0158;}
	.st39{fill:url(#SVGID_00000173846057182942259760000012685816155754772406_);}
	.st40{fill-rule:evenodd;clip-rule:evenodd;fill:url(#SVGID_00000075876594304009385240000008314164348794252475_);}
	.st41{fill:none;stroke:#000000;stroke-linecap:round;stroke-miterlimit:2;stroke-dasharray:5.0332,5.0332;}
	.st42{fill-rule:evenodd;clip-rule:evenodd;fill:url(#SVGID_00000026857664081326839650000005180199503475596953_);}
	.st43{fill:none;stroke:#000000;stroke-linecap:round;stroke-miterlimit:2;stroke-dasharray:4.9923,4.9923;}
	.st44{fill-rule:evenodd;clip-rule:evenodd;fill:url(#SVGID_00000061440918097730679130000017249547799463359624_);}
	.st45{fill:none;stroke:#000000;stroke-linecap:round;stroke-miterlimit:2;stroke-dasharray:4.8275,4.8275;}
	.st46{fill:none;stroke:#000000;stroke-linecap:round;stroke-miterlimit:2;stroke-dasharray:3.1132,3.1132;}
	.st47{fill-rule:evenodd;clip-rule:evenodd;fill:url(#SVGID_00000087376319813535584220000009965829038334912163_);}
	.st48{fill:none;stroke:#000000;stroke-linecap:round;stroke-miterlimit:2;stroke-dasharray:4.9833,4.9833;}
	.st49{fill-rule:evenodd;clip-rule:evenodd;fill:url(#SVGID_00000070830982331772132280000012942803862910142652_);}
	.st50{fill:none;stroke:#000000;stroke-miterlimit:10;stroke-dasharray:4.8971,4.8971;}
	
		.st51{fill-rule:evenodd;clip-rule:evenodd;fill:none;stroke:#000000;stroke-width:3;stroke-linecap:round;stroke-linejoin:round;stroke-miterlimit:10;}
</style>
<g id="Shape1">
	
		<linearGradient id="shapePath1_00000137121076293283125090000015120358517968706964_" gradientUnits="userSpaceOnUse" x1="336.6638" y1="170.4812" x2="661.0984" y2="170.4812">
		<stop  offset="0" style="stop-color:#C3AAE7"/>
		<stop  offset="0.9608" style="stop-color:#5F4F6B"/>
		<stop  offset="0.9958" style="stop-color:#E1FFBC"/>
	</linearGradient>
	
		<path id="shapePath1" style="fill-rule:evenodd;clip-rule:evenodd;fill:url(#shapePath1_00000137121076293283125090000015120358517968706964_);stroke:#7DA898;stroke-linecap:round;stroke-miterlimit:2;" d="
		M336.7,4.8c5.9,3.2,4.8,14.3,6.4,21c15.8,35.5-5.8,88.7,36,109.3c2.7,0.3,5.2-0.8,7.7-1.6c7.1-4.1,11.3-17.5,13.9-21
		c0.4,6.7,4,10.7,6.9,16.2c-1.5,8.7-68.4,76.8-64.5,86.6c18.7,33.3,64.5,48.1,101.5,50.2c1.9,3.8,39.7,14.2,40.8,17.8
		c-0.1,32.4,109,89.1,87.9,20.2c29.4,5.6,47-224,87.9-239.6"/>
</g>
<g id="Shape3">
	
		<radialGradient id="shapePath3_00000091736571611645951000000006216404361619271576_" cx="-123.9962" cy="427.0771" r="509.3521" gradientTransform="matrix(0.9675 0 0 -1.0075 -33.3341 481.8339)" gradientUnits="userSpaceOnUse">
		<stop  offset="0" style="stop-color:#95956E"/>
		<stop  offset="1" style="stop-color:#FFFFFF"/>
	</radialGradient>
	
		<path id="shapePath3" style="fill-rule:evenodd;clip-rule:evenodd;fill:url(#shapePath3_00000091736571611645951000000006216404361619271576_);stroke:#625371;stroke-linecap:round;stroke-miterlimit:2;" d="
		M9.3,74.5C172.7,12.1,186.9-60.4,172.7,13.6c-14.3,74,11.7,46.4-15.6,79.8c-27.2,33.4,18.2,27.6-51.9,26.1
		c-70-1.5-85.6-23.2-85.6-29s2.6-13.1,1.3-16c-1.3-2.9,1.3-14.5-2.6-7.3C14.5,74.5,9.3,74.5,9.3,74.5z"/>
</g>
<g id="Shape4">
	
		<radialGradient id="shapePath4_00000121259136414998152480000017721758511905963411_" cx="132.8876" cy="314.0284" r="180.2889" gradientTransform="matrix(0.9675 0 0 -1.0075 -33.3341 481.8339)" gradientUnits="userSpaceOnUse">
		<stop  offset="0" style="stop-color:#95956E"/>
		<stop  offset="1" style="stop-color:#C7FFBC"/>
	</radialGradient>
	
		<path id="shapePath4" style="fill-rule:evenodd;clip-rule:evenodd;fill:url(#shapePath4_00000121259136414998152480000017721758511905963411_);stroke:#DABCFF;stroke-linecap:round;stroke-miterlimit:2;" d="
		M194.9,70.9C74.1,91.3,84.2,20.4,99.4,86.7c15.1,66.3-15.6,38.3-15.1,38.8c0.5,0.5-10.6,19.4-10.6,24s-10.6,37.8-15.1,66.8
		c-4.6,29.1,3.2,36.7,5.5,38.8c2.3,2,0.5,1.5,5,2.6c4.6,1,17.9,7.7,50.9,10.7c33,3.1,30.3,4.1,35.3,3.1c5-1-13.8-3.6,30.3-1
		c44.1,2.6,26.6,4.1,49.1,1.5s32.1-2.6,34-5.1c1.8-2.6,0.9-2,6.4-9.7c5.5-7.7,4.1-8.7,10.1-20.4c6-11.7,6.4-10.2,11-23.5
		c4.6-13.3,4.1-15.3,5-22.4c0.9-7.1-0.9-25.5-0.9-30.1c0-4.6,0.9-15.3-2.8-25.5c-3.7-10.2-9.2-24-10.6-27
		c-1.4-3.1,49.6,19.4-3.7-6.6c-53.2-26-34-27.5-55.5-26S194.9,70.9,194.9,70.9z"/>
</g>
<g id="Shape5">
	
		<linearGradient id="shapePath5_00000133508983431227388010000007815558208337385889_" gradientUnits="userSpaceOnUse" x1="103.9473" y1="83.2981" x2="406.9853" y2="83.2981" gradientTransform="matrix(1 0 0 -1 0 482)">
		<stop  offset="0" style="stop-color:#DCC2A2"/>
		<stop  offset="1" style="stop-color:#EEFFBC"/>
	</linearGradient>
	
		<path id="shapePath5" style="fill-rule:evenodd;clip-rule:evenodd;fill:url(#shapePath5_00000133508983431227388010000007815558208337385889_);stroke:#DABCFF;stroke-linecap:round;stroke-miterlimit:2;" d="
		M421.5,284.8C77.8,497.5-7.5,494.8,81.8,496.1c89.3,1.4,165.1,4.8,189.8,5.5s76.6,14.4,89.3,10.3c12.8-4.1,24.7,14.4,55.8-31.5
		s35.9-60.2,39.1-70.5c3.2-10.3,4-42.4,4-45.1s7.2-6.2-4-30.1c-11.2-23.9-19.9-42.4-19.9-43.8s-1.6-4.1-1.6-4.8
		S421.5,284.8,421.5,284.8z"/>
</g>
<g id="Shape6">
	
		<linearGradient id="shapePath6_00000064317332062577581830000008956592375592021170_" gradientUnits="userSpaceOnUse" x1="6.6926" y1="168.4561" x2="374.3252" y2="168.4561" gradientTransform="matrix(1 0 0 -1 0 482)">
		<stop  offset="0" style="stop-color:#95956E"/>
		<stop  offset="1" style="stop-color:#FFFFFF"/>
	</linearGradient>
	
		<path id="shapePath6" style="fill-rule:evenodd;clip-rule:evenodd;fill:url(#shapePath6_00000064317332062577581830000008956592375592021170_);stroke:#DABCFF;stroke-linecap:round;stroke-miterlimit:2;" d="
		M296.1,259.2C66.8,240,66.8,233,66.8,240s-4.8,28.2,2.9,41.3c7.7,13.1,32.9,50.4,88,73.5s116.1,49.4,137.4,25.2
		c21.3-24.2,21.3-39.3,20.3-49.4C314.5,320.6,296.1,259.2,296.1,259.2z"/>
</g>
<g id="Shape7">
	
		<radialGradient id="shapePath7_00000076579672637906295420000007129296066848488628_" cx="190.1804" cy="207.757" r="380" gradientTransform="matrix(0.9675 0 0 -1.0075 -33.3341 481.8339)" gradientUnits="userSpaceOnUse">
		<stop  offset="0" style="stop-color:#95956E"/>
		<stop  offset="1" style="stop-color:#FFFFFF"/>
	</radialGradient>
	
		<path id="shapePath7" style="fill-rule:evenodd;clip-rule:evenodd;fill:url(#shapePath7_00000076579672637906295420000007129296066848488628_);stroke:#DABCFF;stroke-linecap:round;stroke-miterlimit:2;" d="
		M281.8,291.2c0,0,0-20.1,19.3-20.1c19.3,0,38.7-40.3,38.7-40.3l19.3-20.1c0,0,19.3-20.1,19.3,20.1s19.3,20.1,0,60.4
		c-19.3,40.3,0,60.4-38.7,40.3C301.1,311.4,281.8,291.2,281.8,291.2z"/>
</g>
<g id="Shape8">
	
		<linearGradient id="shapePath8_00000167354859932714315500000003657196099439675268_" gradientUnits="userSpaceOnUse" x1="54.1876" y1="142.424" x2="214.8212" y2="142.424" gradientTransform="matrix(1 0 0 -1 0 482)">
		<stop  offset="0" style="stop-color:#95956E"/>
		<stop  offset="1" style="stop-color:#FFFFFF"/>
	</linearGradient>
	
		<path id="shapePath8" style="fill-rule:evenodd;clip-rule:evenodd;fill:url(#shapePath8_00000167354859932714315500000003657196099439675268_);stroke:#DABCFF;stroke-linecap:round;stroke-miterlimit:2;" d="
		M63.6,245.5c3.3,20.9-4.1,41.7-3,63.2l-1.3,5c-2.3,11.6-9.9,18-15.2,26.8c-8.4,8.4-18.3,15.3-24.5,26.8c-3.5,13.1,1.1,25.5,3,37.5
		c12.5,21.6,35.6,24,54.1,31.3c8.1-2.8,13.8-11.5,20.6-17.4c4-3.1,8.1-6,12.4-8.4l24.1-5.6l3.8,0.6c7.4,17.9,19.4,35.5,35.9,34.7
		c20.3-4.3,39.3-16.7,57.5-29.1c15-25.9,20.5-59.5,19.4-91.7c-6-17-10.5-36.4-20.7-49.8c-25.6-14.9-53.6-18.3-81.2-21.8
		c-31.9-8.2-64.2-9.4-96.4-8.4c2.4,5.1,3.2,14.8,9.7,11.3c2.1-0.1,4.2-1,6.3-1.4C77.3,248.1,60.6,242.9,63.6,245.5z"/>
</g>
<g id="Shape9">
	<g id="shapePath9">
		
			<linearGradient id="SVGID_1_" gradientUnits="userSpaceOnUse" x1="73.4108" y1="233.7628" x2="139.5638" y2="233.7628" gradientTransform="matrix(1 0 0 -1 0 482)">
			<stop  offset="0" style="stop-color:#95956E"/>
			<stop  offset="1" style="stop-color:#FFFFFF"/>
		</linearGradient>
		<path class="st7" d="M105.9,206.2c-16.2,6.2-33.3,10-47.9,22.4l-0.9,3.4c3.9,22.3,15.6,43.2,32,49.4l8.2,4.6c3.2,3,5.7,7.5,9.6,9
			l5.2,0.5l4.9-1.7c10.2-8.6,21.2-15.7,30.8-25.5c4.4-10.1,8.6-21.8,8-34c-1.5-9.3-4.7-18.6-8.9-26c-12.3-7.2-26.8-8-39.9-6.3
			C107.2,203.1,105,208.4,105.9,206.2z"/>
		<g>
			<path class="st8" d="M98.1,209c-0.8,0.3-1.6,0.5-2.4,0.8"/>
			<path class="st9" d="M91.1,211.5c-11.5,4-22.9,8.5-33.1,17.1l-0.9,3.4c3.9,22.3,15.6,43.2,32,49.4l8.2,4.6c3.2,3,5.7,7.5,9.6,9
				l5.2,0.5l4.9-1.7c10.2-8.6,21.2-15.7,30.8-25.5c4.4-10.1,8.6-21.8,8-34c-1.5-9.3-4.7-18.6-8.9-26c-10.8-6.3-23.2-7.7-34.9-6.8"/>
			<path class="st8" d="M109.6,201.5c-0.8,0.1-1.7,0.2-2.5,0.3c0.1,0.5-0.2,1.5-0.5,2.4"/>
			<path class="st8" d="M106.3,204.9c-0.5,1.4-1,2.5-0.5,1.3"/>
			<g>
				<path d="M105.9,206.2c-4.1-0.1-9.5-0.7-13.2-2.2l4.4,5.3l0,6.9C99,212.8,102.7,208.9,105.9,206.2z"/>
			</g>
		</g>
	</g>
</g>
<g id="Shape10">
	<g id="shapePath10">
		
			<linearGradient id="SVGID_00000111152414196365879820000000101879353804608397_" gradientUnits="userSpaceOnUse" x1="31.7687" y1="176.9097" x2="202.3519" y2="176.9097" gradientTransform="matrix(1 0 0 -1 0 482)">
			<stop  offset="0" style="stop-color:#95956E"/>
			<stop  offset="1" style="stop-color:#FFFFFF"/>
		</linearGradient>
		<path style="fill-rule:evenodd;clip-rule:evenodd;fill:url(#SVGID_00000111152414196365879820000000101879353804608397_);" d="
			M192.8,250.9c-48.9,0.7-97.6,7.5-145.9,15.5l-8.1,4c-3.2,2.9-9.7,4.5-8.1,10.5c14.2,23.6,31.5,45.3,48,67.2
			c27.8,14.6,64.4,29.2,92.9,9.5c3.6-1.7,7.2-3.3,10.8-5c31.9-25.7,22-76.9,8.1-109.8c-1.1,0.2-0.3,3-0.2,4
			C190.5,248.6,192,249.5,192.8,250.9z"/>
		<g>
			<path class="st8" d="M184.5,251.1c-0.8,0-1.7,0-2.5,0.1"/>
			<path class="st11" d="M177,251.4c-43.6,1.8-87.1,7.9-130.1,15.1l-8.1,4c-3.2,2.9-9.7,4.5-8.1,10.5c14.2,23.6,31.5,45.3,48,67.2
				c27.8,14.6,64.4,29.2,92.9,9.5c3.6-1.7,7.2-3.3,10.8-5c30.4-24.5,22.9-72.3,10-105.2"/>
			<path class="st8" d="M191.5,245.2c-0.3-0.8-0.6-1.5-1-2.3c-0.7,0.1-0.6,1.2-0.5,2.3"/>
			<path class="st8" d="M191.3,248.9c0.5,0.6,1.1,1.3,1.5,2"/>
			<g>
				<path d="M192.8,250.9c-3.9-1.3-8.8-3.6-11.9-6.2l2.6,6.4l-2.2,6.6C184.2,255.1,188.9,252.5,192.8,250.9z"/>
			</g>
		</g>
	</g>
</g>
<g id="Shape11">
	<g id="shapePath11">
		
			<linearGradient id="SVGID_00000113355334432091207700000015448180368470973099_" gradientUnits="userSpaceOnUse" x1="170.1044" y1="270.6218" x2="340.6872" y2="270.6218" gradientTransform="matrix(1 0 0 -1 0 482)">
			<stop  offset="0" style="stop-color:#95956E"/>
			<stop  offset="1" style="stop-color:#FFFFFF"/>
		</linearGradient>
		<path style="fill-rule:evenodd;clip-rule:evenodd;fill:url(#SVGID_00000113355334432091207700000015448180368470973099_);" d="
			M248.4,127.9c-18,160.4-26.9,200.5,0,140.4s18-90.2,26.9-110.3c9-20.1,0-30.1,0-30.1s9,0-9,0C248.4,127.9,248.4,127.9,248.4,127.9
			z"/>
		<g>
			<path class="st8" d="M247.5,136.1c-0.1,0.8-0.2,1.7-0.3,2.5"/>
			<path class="st13" d="M246.7,143.5c-16.8,147.4-24.3,182.9,1.8,124.8c26.9-60.2,18-90.2,26.9-110.3c5.6-12.4,4.2-21,2.4-25.8"/>
			<path class="st8" d="M276.7,130c-0.8-1.4-1.4-2.1-1.4-2.1s3.1,0,2,0"/>
			<path class="st14" d="M272.1,127.9c-1.5,0-3.4,0-5.7,0c-6.1,0-10.2,0-12.8,0"/>
			<path class="st8" d="M250.9,127.9c-2.5,0-2.5,0-2.5,0"/>
			<g>
				<path d="M248.4,127.9c-1.9,3.7-4.9,8.2-7.8,10.9l6.7-1.6l6.2,3.1C251.3,137,249.4,131.9,248.4,127.9z"/>
			</g>
		</g>
	</g>
</g>
<g id="Shape12">
	<g id="shapePath12">
		
			<linearGradient id="SVGID_00000065785150944501940620000011212816698782044070_" gradientUnits="userSpaceOnUse" x1="8.1427" y1="346.8248" x2="178.726" y2="346.8248" gradientTransform="matrix(1 0 0 -1 0 482)">
			<stop  offset="0" style="stop-color:#95956E"/>
			<stop  offset="1" style="stop-color:#FFFFFF"/>
		</linearGradient>
		<path style="fill-rule:evenodd;clip-rule:evenodd;fill:url(#SVGID_00000065785150944501940620000011212816698782044070_);" d="
			M159.6,141.4c-125.7,10-188.5,60.2-125.7,0c62.8-60.2,107.7-40.1,125.7-30.1c18,10,18,10,18,10L159.6,141.4z"/>
		<g>
			<path class="st8" d="M151.4,142.1c-0.8,0.1-1.7,0.2-2.5,0.2"/>
			<path class="st16" d="M143.9,142.9C28.8,155.5-26.2,199,33.9,141.4c62.8-60.2,107.7-40.1,125.7-30.1c6.7,3.8,10.9,6.1,13.6,7.6"
				/>
			<path class="st8" d="M175.4,120.1c2.2,1.2,2.2,1.2,2.2,1.2l-1.7,1.9"/>
			<line class="st17" x1="173" y1="126.4" x2="162.8" y2="137.9"/>
			<line class="st8" x1="161.3" y1="139.5" x2="159.6" y2="141.4"/>
			<g>
				<path d="M159.6,141.4c-4-1-9.1-3-12.3-5.3l3,6.2l-1.7,6.7C151.4,146.1,155.9,143.2,159.6,141.4z"/>
			</g>
		</g>
	</g>
</g>
<g id="Shape13">
	<g id="shapePath13">
		
			<linearGradient id="SVGID_00000042016726592558051540000006649694645009193618_" gradientUnits="userSpaceOnUse" x1="112.5925" y1="375.8019" x2="283.1758" y2="375.8019" gradientTransform="matrix(1 0 0 -1 0 482)">
			<stop  offset="0" style="stop-color:#95956E"/>
			<stop  offset="1" style="stop-color:#FFFFFF"/>
		</linearGradient>
		<path style="fill-rule:evenodd;clip-rule:evenodd;fill:url(#SVGID_00000042016726592558051540000006649694645009193618_);" d="
			M250.6,93.7c-9,0-71.8-10-80.8-10s-44.9-40.1-9,10s71.8,50.1,71.8,50.1l9-10v-20.1l9-10V93.7z"/>
		<g>
			<path class="st19" d="M242.4,93c-19.8-2.3-65.1-9.3-72.6-9.3c-9,0-44.9-40.1-9,10s71.8,50.1,71.8,50.1l9-10v-20.1l9-10v-10"/>
			<g>
				<path d="M250.6,93.7c-3.7-1.8-8.3-4.7-11.1-7.6l1.7,6.7l-2.9,6.3C241.6,96.8,246.6,94.8,250.6,93.7z"/>
			</g>
		</g>
	</g>
</g>
<g id="Shape14">
	<g id="shapePath14">
		<path class="st20" d="M93.4,234.4c-7.1-17-9.6-50.1-23.6-56.5c-14.1-6.5-16.4-12.1-18.7,9.7c-2.2,21.8,4.8,38.8,11.9,42
			s11.7,14.5,16.4,12.1c4.7-2.4,18.7,4,16.4-1.6C93.4,234.4,93.4,234.4,93.4,234.4z"/>
		<g>
			<path class="st19" d="M90.7,226.5c-5.3-17.8-8.8-43.2-20.9-48.7c-14.1-6.5-16.4-12.1-18.7,9.7c-2.2,21.8,4.8,38.8,11.9,42
				c7,3.2,11.7,14.5,16.4,12.1c4.7-2.4,18.7,4,16.4-1.6c-2.4-5.7-2.4-5.7-2.4-5.7"/>
			<g>
				<path d="M93.4,234.4c0.1-4.1,0.9-9.5,2.4-13.2l-5.4,4.3l-6.9-0.1C86.9,227.3,90.8,231.1,93.4,234.4z"/>
			</g>
		</g>
	</g>
</g>
<g id="Shape15">
	<g id="shapePath15">
		<path class="st20" d="M171.8,61.2c-7.1-17-9.6-50.1-23.6-56.5c-14.1-6.5-16.4-12.1-18.7,9.7c-2.2,21.8,4.8,38.8,11.9,42
			c7,3.2,11.7,14.5,16.4,12.1c4.7-2.4,18.7,4,16.4-1.6C171.8,61.2,171.8,61.2,171.8,61.2z"/>
		<g>
			<path class="st19" d="M169.1,53.4c-5.3-17.8-8.8-43.2-20.9-48.7c-14.1-6.5-16.4-12.1-18.7,9.7c-2.2,21.8,4.8,38.8,11.9,42
				c7,3.2,11.7,14.5,16.4,12.1c4.7-2.4,18.7,4,16.4-1.6c-2.4-5.7-2.4-5.7-2.4-5.7"/>
			<g>
				<path d="M171.8,61.2c0.1-4.1,0.9-9.5,2.4-13.2l-5.4,4.3l-6.9-0.1C165.3,54.2,169.2,58,171.8,61.2z"/>
			</g>
		</g>
	</g>
</g>
<g id="Shape16">
	<g id="shapePath16">
		<path class="st20" d="M149.2,219c-7.1-17-9.6-50.1-23.6-56.5c-14.1-6.5-16.4-12.1-18.7,9.7c-2.2,21.8,4.8,38.8,11.9,42
			c7,3.2,11.7,14.5,16.4,12.1c4.7-2.4,18.7,4,16.4-1.6C149.2,219,149.2,219,149.2,219z"/>
		<g>
			<path class="st19" d="M146.5,211.2c-5.3-17.8-8.8-43.2-20.9-48.7c-14.1-6.5-16.4-12.1-18.7,9.7c-2.2,21.8,4.8,38.8,11.9,42
				c7,3.2,11.7,14.5,16.4,12.1c4.7-2.4,18.7,4,16.4-1.6c-2.4-5.7-2.4-5.7-2.4-5.7"/>
			<g>
				<path d="M149.2,219c0.1-4.1,0.9-9.5,2.4-13.2l-5.4,4.3l-6.9-0.1C142.7,212,146.6,215.8,149.2,219z"/>
			</g>
		</g>
	</g>
</g>
<g>
	
		<linearGradient id="SVGID_00000060743288892642039770000003848573707333819039_" gradientUnits="userSpaceOnUse" x1="441.6441" y1="289.4734" x2="548.9698" y2="289.4734">
		<stop  offset="0" style="stop-color:#A0DACC"/>
		<stop  offset="0.9958" style="stop-color:#E1FFBC"/>
	</linearGradient>
	<path style="fill:url(#SVGID_00000060743288892642039770000003848573707333819039_);" d="M545.5,330.3c0.5-42.1,2.4-48.6,1.9-81.9
		c-1-70.6-10.6-137.5-15.5-129.6c-6,9.9,1.9,123.4-7.9,175.3c-13,68.6-53.1,37.3-50.4-75.8c2.2-93.9-30.2-36.8-30.6-32.3
		c-1.1,11.3-2.4,169.8-0.2,272.3l106.1,2.5C544.7,403.8,545.5,335.1,545.5,330.3z"/>
</g>
<path class="st22" d="M515,565c0.3,0,0.7,0,1,0"/>
<g id="Shape1_00000112627582703120912070000001870001726670394024_">
	
		<linearGradient id="shapePath1_00000080207575771067704130000000366614362236291234_" gradientUnits="userSpaceOnUse" x1="423.7735" y1="400.6335" x2="626.2936" y2="400.6335" gradientTransform="matrix(-1.201 0 0 1 782.6517 0)">
		<stop  offset="0" style="stop-color:#F8FFBC"/>
		<stop  offset="0.9608" style="stop-color:#AC7E94"/>
		<stop  offset="0.9958" style="stop-color:#FCB9DF"/>
	</linearGradient>
	
		<path id="shapePath1_00000001627676189865269690000001444594556034580609_" style="fill-rule:evenodd;clip-rule:evenodd;fill:url(#shapePath1_00000080207575771067704130000000366614362236291234_);stroke:#DABCFF;stroke-linecap:round;stroke-miterlimit:2;" d="
		M273.7,295.3c-4.5,2-3.6,9.1-4.8,13.4c-11.8,22.6,4.4,56.4-27,69.5c-2,0.2-3.9-0.5-5.8-1c-5.3-2.6-8.5-11.1-10.4-13.4
		c-0.3,4.3-3,6.8-5.2,10.3c1.1,5.5,51.3,48.8,48.4,55.1c-14,21.2-48.3,30.6-76.1,31.9c-1.4,2.4-29.7,9-30.6,11.3
		c0.1,20.6-81.8,56.7-65.9,12.9c-22.1,3.5-35.2-142.4-65.9-152.3"/>
</g>
<g>
	
		<linearGradient id="SVGID_00000109749785628781533140000006112866877453857205_" gradientUnits="userSpaceOnUse" x1="284.6071" y1="389.7209" x2="351.6024" y2="389.7209" gradientTransform="matrix(-1.201 0 0 1 782.6517 0)">
		<stop  offset="0" style="stop-color:#CEAC97"/>
		<stop  offset="0.9958" style="stop-color:#FCB9DF"/>
	</linearGradient>
	<path style="fill:url(#SVGID_00000109749785628781533140000006112866877453857205_);" d="M362.9,415.6c-0.4-26.7-1.8-30.9-1.4-52.1
		c0.7-44.9,8-87.4,11.6-82.4c4.5,6.3-1.4,78.5,5.9,111.4c9.7,43.6,39.8,23.7,37.8-48.2c-1.7-59.7,22.6-23.4,23-20.5
		c0.8,7.2,1.8,107.9,0.1,173.1l-79.5,1.6C363.5,462.4,363,418.7,362.9,415.6z"/>
</g>
<g id="Shape9_00000016038128091190622940000008391061633771169183_">
	<g id="shapePath9_00000094607624424282250880000004519959375556489885_">
		
			<linearGradient id="SVGID_00000178914698758807338240000006784940626724907667_" gradientUnits="userSpaceOnUse" x1="204.5083" y1="199.1218" x2="241.8089" y2="199.1218" gradientTransform="matrix(-0.9834 -0.1814 -0.1814 0.9834 794.958 0.6419)">
			<stop  offset="0" style="stop-color:#836F60"/>
			<stop  offset="1" style="stop-color:#FFFFFF"/>
		</linearGradient>
		<path style="fill-rule:evenodd;clip-rule:evenodd;fill:url(#SVGID_00000178914698758807338240000006784940626724907667_);" d="
			M534.8,183.2c9.7-2.3,19.6-2.9,29.1-9.4l0.9-2.1c0.4-14.8-3.7-29.5-12.1-35.3l-4-3.8c-1.4-2.3-2.3-5.5-4.3-6.8l-2.8-0.9l-2.9,0.6
			c-6.6,4.5-13.6,7.9-20,13.2c-3.6,6.1-7.2,13.2-8.3,21.1c-0.2,6.2,0.5,12.5,1.9,17.7c6,6,13.9,8,21.3,8.3
			C533.7,185.1,535.6,181.9,534.8,183.2z"/>
		<g>
			<path class="st8" d="M542.9,181.5c0.8-0.2,1.6-0.3,2.4-0.5"/>
			<path class="st26" d="M550.3,179.9c4.6-1.2,9.2-3,13.6-6l0.9-2.1c0.4-14.8-3.7-29.5-12.1-35.3l-4-3.8c-1.4-2.3-2.3-5.5-4.3-6.8
				l-2.8-0.9l-2.9,0.6c-6.6,4.5-13.6,7.9-20,13.2c-3.6,6.1-7.2,13.2-8.3,21.1c-0.2,6.2,0.5,12.5,1.9,17.7c4.7,4.7,10.5,6.9,16.4,7.9
				"/>
			<path class="st8" d="M531.2,185.8c0.8,0.1,1.7,0.1,2.5,0.2c0.1-0.8,1.9-4,1.2-2.7"/>
			<g>
				<path d="M534.8,183.2c4.1,0.6,9.3,2,12.8,4l-3.7-5.9l1-6.9C542.6,177.6,538.4,181,534.8,183.2z"/>
			</g>
		</g>
	</g>
</g>
<g id="Shape10_00000000927678819868260890000017869908197766696857_">
	<g id="shapePath10_00000032637105806079220480000004860738158557288336_">
		
			<linearGradient id="SVGID_00000030468905570128461430000001708789229472096429_" gradientUnits="userSpaceOnUse" x1="223.8403" y1="144.3291" x2="320.0919" y2="144.3291" gradientTransform="matrix(-0.9834 -0.1814 -0.1814 0.9834 794.958 0.6419)">
			<stop  offset="0" style="stop-color:#846181"/>
			<stop  offset="1" style="stop-color:#FFFFFF"/>
		</linearGradient>
		<path style="fill-rule:evenodd;clip-rule:evenodd;fill:url(#SVGID_00000030468905570128461430000001708789229472096429_);" d="
			M453.1,120.4c27.1,4.7,54.9,5.5,82.5,5.5l4.9-1.7c2.1-1.5,5.9-1.9,5.7-5.9c-5.2-16.8-12.2-32.6-18.9-48.5
			c-13.7-12.4-32.3-25.7-50.3-16c-2.2,0.7-4.4,1.4-6.5,2.1c-20.6,13.2-21,47.4-17,70.1c0.6,0,0.5-1.9,0.5-2.5
			C454.1,122.1,453.4,121.4,453.1,120.4z"/>
		<g>
			<path class="st8" d="M461.3,121.7c0.8,0.1,1.6,0.2,2.5,0.4"/>
			<path class="st28" d="M468.7,122.7c22.1,2.7,44.6,3.2,66.9,3.2l4.9-1.7c2.1-1.5,5.9-1.9,5.7-5.9c-5.2-16.8-12.2-32.6-18.9-48.5
				c-13.7-12.4-32.3-25.7-50.3-16c-2.2,0.7-4.4,1.4-6.5,2.1c-19.2,12.3-20.8,42.7-17.8,65.2"/>
			<path class="st8" d="M453,123.3c0.1,0.8,0.3,1.7,0.4,2.5c0.6,0,0.5-1.5,0.5-2.3"/>
			<path class="st8" d="M454,122.7c-0.1-0.8-0.7-1.5-0.9-2.3"/>
			<g>
				<path d="M453.1,120.4c3.6,2,8,5.2,10.6,8.2l-1.3-6.8l3.3-6.1C462.3,117.9,457.2,119.5,453.1,120.4z"/>
			</g>
		</g>
	</g>
</g>
<g id="Shape11_00000100360490555693425730000001408078904719981990_">
	<g id="shapePath11_00000031206833682180825660000014672486336118211760_">
		
			<linearGradient id="SVGID_00000080885426084056986640000015086722477955156369_" gradientUnits="userSpaceOnUse" x1="238.7443" y1="161.7744" x2="332.4878" y2="161.7744" gradientTransform="matrix(-0.9834 -0.1814 -0.1814 0.9834 794.958 0.6419)">
			<stop  offset="0" style="stop-color:#846181"/>
			<stop  offset="1" style="stop-color:#FFFFFF"/>
		</linearGradient>
		<path style="fill-rule:evenodd;clip-rule:evenodd;fill:url(#SVGID_00000080885426084056986640000015086722477955156369_);" d="
			M479.1,162.5c28.3-101.8,37.9-126.7,16.1-90.7c-21.8,36-20.3,56.4-27.5,68.4c-7.3,12-3.4,19.4-3.4,19.4s-5-1,5,1
			C479.1,162.5,479.1,162.5,479.1,162.5z"/>
		<g>
			<path class="st8" d="M481.3,154.6c0.2-0.8,0.5-1.6,0.7-2.4"/>
			<path class="st30" d="M483.3,147.4c25-89.1,32.5-109.8,11.9-75.6c-21.8,36-20.3,56.4-27.5,68.4c-3.8,6.2-4.6,11.2-4.4,14.6"/>
			<path class="st8" d="M463.4,157.3c0.3,1.6,0.7,2.4,0.7,2.4s-2.8-0.5,0,0"/>
			<path class="st31" d="M468.3,160.5c0.3,0.1,0.5,0.1,0.8,0.2c2.3,0.4,4.1,0.8,5.4,1"/>
			<path class="st8" d="M476.6,162.1c2.5,0.5,2.5,0.5,2.5,0.5"/>
			<g>
				<path d="M479.1,162.5c2.4-3.4,6.1-7.3,9.4-9.5l-6.9,0.5l-5.6-4C477.7,153.1,478.7,158.4,479.1,162.5z"/>
			</g>
		</g>
	</g>
</g>
<g id="Shape12_00000090296189588745893600000011832107796149570986_">
	<g id="shapePath12_00000116913524171782754540000017953077321921036186_">
		
			<linearGradient id="SVGID_00000057120174182047090130000011663657717439971753_" gradientUnits="userSpaceOnUse" x1="240.3955" y1="206.5793" x2="336.3176" y2="206.5793" gradientTransform="matrix(-0.9834 -0.1814 -0.1814 0.9834 794.958 0.6419)">
			<stop  offset="0" style="stop-color:#846181"/>
			<stop  offset="1" style="stop-color:#FFFFFF"/>
		</linearGradient>
		<path style="fill-rule:evenodd;clip-rule:evenodd;fill:url(#SVGID_00000057120174182047090130000011663657717439971753_);" d="
			M438,140.3c70.7,6.9,111.2-18.8,69.6,13.4c-41.7,32.2-64.2,14.5-73,6.1c-8.8-8.4-8.8-8.4-8.8-8.4L438,140.3z"/>
		<g>
			<path class="st8" d="M446.3,141c0.8,0.1,1.7,0.1,2.5,0.2"/>
			<path class="st33" d="M453.7,141.4c60.8,2.3,92.5-17.4,54,12.3c-41.7,32.2-64.2,14.5-73,6.1c-2.3-2.2-4-3.8-5.2-5"/>
			<path class="st8" d="M427.6,153.1c-1.8-1.7-1.8-1.7-1.8-1.7l1.9-1.7"/>
			<line class="st34" x1="430.5" y1="147.1" x2="434.8" y2="143.3"/>
			<line class="st8" x1="436.2" y1="142" x2="438" y2="140.3"/>
			<g>
				<path d="M438,140.3c3.8,1.7,8.4,4.5,11.2,7.3l-1.9-6.7l2.8-6.3C447,137.1,442,139.2,438,140.3z"/>
			</g>
		</g>
	</g>
</g>
<g id="Shape13_00000095306221483274951870000005331614240336594847_">
	<g id="shapePath13_00000182498489773598303180000011290536565143478403_">
		
			<linearGradient id="SVGID_00000118390228664312772980000003530635876696286399_" gradientUnits="userSpaceOnUse" x1="228.97" y1="162.3486" x2="325.3784" y2="162.3486" gradientTransform="matrix(-0.9834 -0.1814 -0.1814 0.9834 794.958 0.6419)">
			<stop  offset="0" style="stop-color:#846181"/>
			<stop  offset="1" style="stop-color:#FFFFFF"/>
		</linearGradient>
		<path style="fill-rule:evenodd;clip-rule:evenodd;fill:url(#SVGID_00000118390228664312772980000003530635876696286399_);" d="
			M462.2,112.4c5,1,38.6,14.1,43.6,15.1c5,1,20.3,30.7,6.1-5.5s-34-40-34-40l-6.1,5.5l-2.3,13l-6.1,5.5L462.2,112.4z"/>
		<g>
			<path class="st19" d="M470.1,114.9c11.7,4.1,31.9,11.8,35.7,12.6c5,1,20.3,30.7,6.1-5.5c-14.1-36.2-34-40-34-40l-6.1,5.5l-2.3,13
				l-6.1,5.5l-1.1,6.5"/>
			<g>
				<path d="M462.2,112.4c3.3,2.6,7.1,6.4,9.2,9.8l-0.2-6.9l4.2-5.5C471.7,111.4,466.4,112.2,462.2,112.4z"/>
			</g>
		</g>
	</g>
</g>
<g id="Shape14_00000175303854066440940510000018036632703351459467_">
	<g id="shapePath14_00000054952442073506133370000010129440563746619578_">
		<path class="st36" d="M486.7,129.3c2,11.7-0.4,33.4,6.6,39.1c7,5.7,7.7,9.6,11.4-4.3c3.7-13.9,1.8-25.6-1.8-28.4
			c-3.5-2.8-4.8-10.6-7.7-9.6c-2.9,1.1-9.9-4.6-9.2-0.7C486.7,129.3,486.7,129.3,486.7,129.3z"/>
		<g>
			<path class="st19" d="M487.5,137.5c0.6,11.7,0.2,26.3,5.8,30.8c7,5.7,7.7,9.6,11.4-4.3c3.7-13.9,1.8-25.6-1.8-28.4
				s-4.8-10.6-7.7-9.6c-2.9,1.1-9.9-4.6-9.2-0.7c0.7,3.9,0.7,3.9,0.7,3.9"/>
			<g>
				<path d="M486.7,129.3c-1.1,4-3.1,9-5.4,12.2l6.3-2.9l6.7,1.8C491.3,137.6,488.5,133,486.7,129.3z"/>
			</g>
		</g>
	</g>
</g>
<g id="Shape15_00000032621006202963580950000000343958428082386339_">
	<g id="shapePath15_00000072984949811129353760000017140914890205743525_">
		<path class="st36" d="M468.2,133.2c2,11.7-0.4,33.4,6.6,39.1c7,5.7,7.7,9.6,11.4-4.3c3.7-13.9,1.8-25.6-1.8-28.4
			c-3.5-2.8-4.8-10.6-7.7-9.6c-2.9,1.1-9.9-4.6-9.2-0.7C468.2,133.2,468.2,133.2,468.2,133.2z"/>
		<g>
			<path class="st19" d="M469,141.4c0.6,11.7,0.2,26.3,5.8,30.8c7,5.7,7.7,9.6,11.4-4.3c3.7-13.9,1.8-25.6-1.8-28.4
				c-3.5-2.8-4.8-10.6-7.7-9.6c-2.9,1.1-9.9-4.6-9.2-0.7c0.7,3.9,0.7,3.9,0.7,3.9"/>
			<g>
				<path d="M468.2,133.2c-1.1,4-3.1,9-5.4,12.2l6.3-2.9l6.7,1.8C472.9,141.5,470,136.9,468.2,133.2z"/>
			</g>
		</g>
	</g>
</g>
<g id="Shape16_00000147940706982577320170000004916995380776824967_">
	<g id="shapePath16_00000074419400041567400200000001538103830229722038_">
		<path class="st37" d="M446.9,136.4c2,11.7-0.4,33.4,6.6,39.1c7,5.7,7.7,9.6,11.4-4.3c3.7-13.9,1.8-25.6-1.8-28.4
			c-3.5-2.8-4.8-10.6-7.7-9.6c-2.9,1.1-9.9-4.6-9.2-0.7C446.9,136.4,446.9,136.4,446.9,136.4z"/>
		<g>
			<path class="st19" d="M447.7,144.7c0.6,11.7,0.2,26.3,5.8,30.8c7,5.7,7.7,9.6,11.4-4.3c3.7-13.9,1.8-25.6-1.8-28.4
				c-3.5-2.8-4.8-10.6-7.7-9.6c-2.9,1.1-9.9-4.6-9.2-0.7c0.7,3.9,0.7,3.9,0.7,3.9"/>
			<g>
				<path d="M446.9,136.4c-1.1,4-3.1,9-5.4,12.2l6.3-2.9l6.7,1.8C451.6,144.8,448.7,140.2,446.9,136.4z"/>
			</g>
		</g>
	</g>
</g>
<path d="M96.2,177.4c-0.7,0.1-1.4,0.2-2,0.7c-0.7,0.6-0.9,1.5-1,2.4c-0.5,3.7,0.5,8.3,4.1,9.7c2.3,0.9,5.1,0.2,6.9-1.4
	c1.8-1.6,2.7-3.9,3.3-6.2c-0.2,3.1,1.9,6.3,4.9,7.5c1.2,0.5,2.5,0.7,3.7,0.8c6.9,0.5,14.7-1.9,17.4-8c0.9-2.1,2.2-8.5,0.5-10.6
	c-1.8-2.1-8.3,0.2-11.2,0.7C113.9,174.5,105,176,96.2,177.4z"/>
<path d="M148.2,30.3c-0.7,0.1-1.4,0.2-2,0.7c-0.7,0.6-0.9,1.5-1,2.4c-0.5,3.7,0.5,8.3,4.1,9.7c2.3,0.9,5.1,0.2,6.9-1.4
	c1.8-1.6,2.7-3.9,3.3-6.2c-0.2,3.1,1.9,6.3,4.9,7.5c1.2,0.5,2.5,0.7,3.7,0.8c6.9,0.5,14.7-1.9,17.4-8c0.9-2.1,2.2-8.5,0.5-10.6
	c-1.8-2.1-8.3,0.2-11.2,0.7C165.9,27.3,157.1,28.8,148.2,30.3z"/>
<g id="Shape15_00000085248026099401593920000000025469753811107468_">
	<g id="shapePath15_00000088101219579038084000000008158986710080581791_">
		<path class="st20" d="M435.5,322.6c-7.1-17-9.6-50.1-23.6-56.5c-14.1-6.5-16.4-12.1-18.7,9.7c-2.2,21.8,4.8,38.8,11.9,42
			c7,3.2,11.7,14.5,16.4,12.1c4.7-2.4,18.7,4,16.4-1.6C435.5,322.6,435.5,322.6,435.5,322.6z"/>
		<g>
			<path class="st19" d="M432.8,314.7c-5.3-17.8-8.8-43.2-20.9-48.7c-14.1-6.5-16.4-12.1-18.7,9.7c-2.2,21.8,4.8,38.8,11.9,42
				c7,3.2,11.7,14.5,16.4,12.1c4.7-2.4,18.7,4,16.4-1.6c-2.4-5.7-2.4-5.7-2.4-5.7"/>
			<g>
				<path d="M435.5,322.6c0.1-4.1,0.9-9.5,2.4-13.2l-5.4,4.3l-6.9-0.1C429,315.5,432.9,319.3,435.5,322.6z"/>
			</g>
		</g>
	</g>
</g>
<path d="M82.2,199.2c0.6,0.4,1.2,0.9,1.5,1.5c0.4,0.8,0.2,1.8-0.1,2.7c-1.1,3.5-3.7,7.2-7.6,6.8c-2.5-0.3-4.6-2.3-5.6-4.6
	s-0.9-4.8-0.4-7.2c-1,2.9-4.2,4.8-7.4,4.4c-1.3-0.1-2.5-0.6-3.7-1.1c-6.4-2.8-12.4-8.7-12.4-15.5c0-2.3,1.4-8.7,3.8-9.8
	c2.4-1,7.3,4.1,9.8,6C67.6,188.1,74.9,193.7,82.2,199.2z"/>
<path d="M399.7,291.6c-0.7,0.1-1.4,0.2-2,0.7c-0.7,0.6-0.9,1.5-1,2.4c-0.5,3.7,0.5,8.3,4.1,9.7c2.3,0.9,5.1,0.2,6.9-1.4
	c1.8-1.6,2.7-3.9,3.3-6.2c-0.2,3.1,1.9,6.3,4.9,7.5c1.2,0.5,2.5,0.7,3.7,0.8c6.9,0.5,14.7-1.9,17.4-8c0.9-2.1,2.2-8.5,0.5-10.6
	c-1.8-2.1-8.3,0.2-11.2,0.7C417.4,288.6,408.5,290.1,399.7,291.6z"/>
<g id="Shape16_00000115484559046754554320000016275186559276058254_">
	<g id="shapePath16_00000011735547938412946430000001976800914604874638_">
		<path class="st20" d="M537.3,264.1c-10.7-27.6-14.4-81.4-35.6-91.9c-21.2-10.5-24.7-19.7-28.1,15.8c-3.4,35.5,7.3,63,17.9,68.3
			c10.6,5.2,17.7,23.6,24.7,19.7c7-3.9,28.2,6.5,24.7-2.7C537.3,264.1,537.3,264.1,537.3,264.1z"/>
		<g>
			<path class="st19" d="M535.8,260.1c-0.3-0.8-0.5-1.6-0.8-2.4"/>
			<path class="st38" d="M533.6,252.9c-8.2-28.9-13.3-71.5-31.9-80.7c-21.2-10.5-24.7-19.7-28.1,15.8c-3.4,35.5,7.3,63,17.9,68.3
				c10.6,5.2,17.7,23.6,24.7,19.7c7-3.9,28.2,6.5,24.7-2.7c-0.7-1.9-1.3-3.3-1.7-4.5"/>
			<path class="st19" d="M538.2,266.5c-0.9-2.3-0.9-2.3-0.9-2.3"/>
			<g>
				<polygon points="527.1,261.8 537.3,264.1 543.7,255.9 543.7,255.9 527.1,261.8 				"/>
			</g>
		</g>
	</g>
</g>
<path d="M524.9,171.8c1.3-0.5,2.7-1,4.1-0.5c1.8,0.7,3.3,2.9,4.5,5.1c5,9,8.6,21.8,4.2,29.7c-2.8,5.1-8.4,6.2-13.2,4.1
	c-4.8-2.1-9.1-7-12.6-12.4c3.9,7.7,4.1,18.4,0.3,25c-1.5,2.6-3.4,4.5-5.5,6.2c-11.1,9.3-27,11.8-38.4-0.8
	c-3.9-4.3-13.5-19.4-12.9-26.7c0.6-7.4,14.2-8.9,19.7-11C491.6,184.3,508.3,178,524.9,171.8z"/>
<g>
	
		<linearGradient id="SVGID_00000145745057726213128380000000264372242405792918_" gradientUnits="userSpaceOnUse" x1="508.2687" y1="398.8986" x2="596.1251" y2="398.8986">
		<stop  offset="0" style="stop-color:#A0DACC"/>
		<stop  offset="0.9958" style="stop-color:#E1FFBC"/>
	</linearGradient>
	<path style="fill:url(#SVGID_00000145745057726213128380000000264372242405792918_);" d="M593.3,419.6c0.4-21.4,1.9-24.7,1.6-41.7
		c-0.8-35.9-8.7-70-12.7-65.9c-4.9,5,1.6,62.8-6.5,89.2c-10.6,34.9-43.4,19-41.2-38.5c1.8-47.8-24.7-18.7-25.1-16.4
		c-0.9,5.8-2,86.4-0.1,138.5l86.8,1.3C592.7,457.1,593.3,422.1,593.3,419.6z"/>
</g>
<g id="Shape9_00000182510403981696573400000005960492904232606858_">
	<g id="shapePath9_00000124124623138893851520000015961160870398127024_">
		
			<linearGradient id="SVGID_00000164482136797740958550000002264894572981208736_" gradientUnits="userSpaceOnUse" x1="128.8303" y1="362.6803" x2="158.8937" y2="362.6803" gradientTransform="matrix(-0.9834 -0.1814 -0.1814 0.9834 794.958 0.6419)">
			<stop  offset="0" style="stop-color:#836F60"/>
			<stop  offset="1" style="stop-color:#FFFFFF"/>
		</linearGradient>
		<path style="fill-rule:evenodd;clip-rule:evenodd;fill:url(#SVGID_00000164482136797740958550000002264894572981208736_);" d="
			M584.6,344.9c7.9-1.2,16-1.5,23.8-4.8l0.7-1.1c0.3-7.6-3-15-9.9-18l-3.3-1.9c-1.2-1.2-1.9-2.8-3.5-3.5l-2.3-0.4l-2.4,0.3
			c-5.4,2.3-11.1,4-16.4,6.7c-2.9,3.1-5.9,6.7-6.8,10.8c-0.2,3.1,0.4,6.4,1.6,9c4.9,3,11.4,4.1,17.5,4.2
			C583.7,345.8,585.2,344.2,584.6,344.9z"/>
		<g>
			<path class="st8" d="M592.8,343.8c0.8-0.1,1.7-0.2,2.5-0.3"/>
			<path class="st41" d="M600.2,342.6c2.7-0.6,5.5-1.4,8.2-2.5l0.7-1.1c0.3-7.6-3-15-9.9-18l-3.3-1.9c-1.2-1.2-1.9-2.8-3.5-3.5
				l-2.3-0.4l-2.4,0.3c-5.4,2.3-11.1,4-16.4,6.7c-2.9,3.1-5.9,6.7-6.8,10.8c-0.2,3.1,0.4,6.4,1.6,9c3.6,2.2,8,3.4,12.5,3.9"/>
			<path class="st8" d="M581.1,346.1c0.8,0.1,1.7,0.1,2.5,0.1c0.1-0.4,1.6-2,1-1.4"/>
			<g>
				<path d="M584.6,344.9c4,0.9,9.2,2.7,12.5,4.9l-3.2-6.1l1.5-6.8C592.7,339.8,588.2,342.9,584.6,344.9z"/>
			</g>
		</g>
	</g>
</g>
<g id="Shape10_00000040570897258923089100000000039497663538795959_">
	<g id="shapePath10_00000003787162631883341570000014855200757534389657_">
		
			<linearGradient id="SVGID_00000163033857918129293570000017371629964638967702_" gradientUnits="userSpaceOnUse" x1="141.8043" y1="338.0835" x2="218.9026" y2="338.0835" gradientTransform="matrix(-0.9834 -0.1814 -0.1814 0.9834 794.958 0.6419)">
			<stop  offset="0" style="stop-color:#846181"/>
			<stop  offset="1" style="stop-color:#FFFFFF"/>
		</linearGradient>
		<path style="fill-rule:evenodd;clip-rule:evenodd;fill:url(#SVGID_00000163033857918129293570000017371629964638967702_);" d="
			M517.7,312.9c22.2,2.4,45,2.8,67.6,2.8l4-0.9c1.7-0.8,4.8-1,4.6-3c-4.2-8.5-10-16.6-15.5-24.7c-11.2-6.3-26.4-13.1-41.2-8.2
			c-1.8,0.4-3.6,0.7-5.4,1.1c-16.9,6.7-17.2,24.1-14,35.7c0.5,0,0.4-1,0.4-1.3C518.5,313.8,517.9,313.4,517.7,312.9z"/>
		<g>
			<path class="st8" d="M525.9,313.7c0.8,0.1,1.7,0.1,2.5,0.2"/>
			<path class="st43" d="M533.4,314.3c17.2,1.2,34.6,1.4,51.9,1.4l4-0.9c1.7-0.8,4.8-1,4.6-3c-4.2-8.5-10-16.6-15.5-24.7
				c-11.2-6.3-26.4-13.1-41.2-8.2c-1.8,0.4-3.6,0.7-5.4,1.1c-14.6,5.8-16.8,19.7-15,30.8"/>
			<path class="st8" d="M517.3,313.2c0.2,0.8,0.4,1.6,0.6,2.4c0.5,0,0.4-1,0.4-1.3c0.1-0.6-0.5-1-0.7-1.5"/>
			<g>
				<path d="M517.7,312.9c3.8,1.8,8.3,4.6,11.1,7.5l-1.8-6.7l2.9-6.3C526.7,309.7,521.7,311.8,517.7,312.9z"/>
			</g>
		</g>
	</g>
</g>
<g id="Shape11_00000015330405911944471390000016984187624135162554_">
	<g id="shapePath11_00000135665008783920996630000006315357632748232835_">
		
			<linearGradient id="SVGID_00000104702622621996370200000014577315672758918332_" gradientUnits="userSpaceOnUse" x1="144.2105" y1="346.4041" x2="239.0691" y2="346.4041" gradientTransform="matrix(-0.9834 -0.1814 -0.1814 0.9834 794.958 0.6419)">
			<stop  offset="0" style="stop-color:#846181"/>
			<stop  offset="1" style="stop-color:#FFFFFF"/>
		</linearGradient>
		<path style="fill-rule:evenodd;clip-rule:evenodd;fill:url(#SVGID_00000104702622621996370200000014577315672758918332_);" d="
			M538.9,334.3c23.2-51.8,31-64.5,13.2-46.1c-17.8,18.3-16.6,28.7-22.5,34.8c-5.9,6.1-2.8,9.9-2.8,9.9s-4.1-0.5,4.1,0.5
			C538.9,334.3,538.9,334.3,538.9,334.3z"/>
		<g>
			<path class="st8" d="M542.3,326.8c0.3-0.8,0.7-1.5,1-2.3"/>
			<path class="st45" d="M545.3,320.1c18.1-39.8,22.8-48.4,6.7-31.9c-17.8,18.3-16.6,28.7-22.5,34.8c-1.9,2-2.9,3.7-3.3,5.2"/>
			<path class="st8" d="M525.9,330.5c0.1,1.5,0.8,2.3,0.8,2.3s-2.6-0.3,0.4,0.1"/>
			<path class="st46" d="M530.2,333.3c0.2,0,0.3,0,0.5,0.1c1.7,0.2,3,0.4,4.1,0.5"/>
			<path class="st8" d="M536.4,334c2.5,0.3,2.5,0.3,2.5,0.3"/>
			<g>
				<path d="M538.9,334.3c2.9-2.9,7.2-6.3,10.8-8l-6.9-0.5l-5-4.8C538.9,324.8,539.2,330.2,538.9,334.3z"/>
			</g>
		</g>
	</g>
</g>
<g id="Shape12_00000178888175671546469160000018201810966858820482_">
	<g id="shapePath12_00000026162510324352362640000014063595419088662939_">
		
			<linearGradient id="SVGID_00000117640846577829289790000005672718255849837235_" gradientUnits="userSpaceOnUse" x1="156.4493" y1="368.9956" x2="235.7042" y2="368.9956" gradientTransform="matrix(-0.9834 -0.1814 -0.1814 0.9834 794.958 0.6419)">
			<stop  offset="0" style="stop-color:#846181"/>
			<stop  offset="1" style="stop-color:#FFFFFF"/>
		</linearGradient>
		<path style="fill-rule:evenodd;clip-rule:evenodd;fill:url(#SVGID_00000117640846577829289790000005672718255849837235_);" d="
			M505.3,323c57.9,3.5,91.1-9.6,57,6.8c-34.1,16.4-52.6,7.4-59.8,3.1c-7.2-4.3-7.2-4.3-7.2-4.3L505.3,323z"/>
		<g>
			<path class="st8" d="M513.6,323.4c0.8,0,1.7,0.1,2.5,0.1"/>
			<path class="st48" d="M521.1,323.6c47.8,0.7,72.1-8.6,41.2,6.2c-34.1,16.4-52.6,7.4-59.8,3.1c-1.1-0.7-2.1-1.2-2.9-1.7"/>
			<path class="st8" d="M497.5,329.9c-2.1-1.3-2.1-1.3-2.1-1.3l2.2-1.2"/>
			<line class="st8" x1="503.1" y1="324.3" x2="505.3" y2="323"/>
			<g>
				<path d="M505.3,323c3.8,1.6,8.5,4.3,11.4,7l-2.1-6.6l2.6-6.4C514.2,319.5,509.3,321.8,505.3,323z"/>
			</g>
		</g>
	</g>
</g>
<g id="Shape13_00000024681740293769866120000016555424356364564153_">
	<g id="shapePath13_00000136376319461718552340000011203821680860103102_">
		
			<linearGradient id="SVGID_00000178163694601752083320000004237431784127478177_" gradientUnits="userSpaceOnUse" x1="147.643" y1="345.9914" x2="224.0318" y2="345.9914" gradientTransform="matrix(-0.9834 -0.1814 -0.1814 0.9834 794.958 0.6419)">
			<stop  offset="0" style="stop-color:#846181"/>
			<stop  offset="1" style="stop-color:#FFFFFF"/>
		</linearGradient>
		<path style="fill-rule:evenodd;clip-rule:evenodd;fill:url(#SVGID_00000178163694601752083320000004237431784127478177_);" d="
			M525.1,308.8c4.1,0.5,31.6,7.2,35.7,7.7c4.1,0.5,16.6,15.6,5-2.8c-11.6-18.4-27.8-20.4-27.8-20.4l-5,2.8l-1.9,6.6l-5,2.8
			L525.1,308.8z"/>
		<g>
			<path class="st19" d="M533.2,310.5c9.7,2.2,24.7,5.7,27.6,6c4.1,0.5,16.6,15.6,5-2.8c-11.6-18.4-27.8-20.4-27.8-20.4l-5,2.8
				l-1.9,6.6l-5,2.8l-0.9,3.3"/>
			<g>
				<path d="M525.1,308.8c3.5,2.2,7.8,5.6,10.2,8.7l-1-6.9l3.6-5.9C534.5,306.8,529.2,308.2,525.1,308.8z"/>
			</g>
		</g>
	</g>
</g>
<g id="Shape14_00000156556130648047791920000018063630461037268408_">
	<g id="shapePath14_00000023968204376444111300000006615360850674293163_">
		<path class="st36" d="M545.1,317.4c1.6,6-0.4,17,5.4,19.9c5.8,2.9,6.3,4.9,9.4-2.2c3.1-7.1,1.4-13-1.4-14.5
			c-2.9-1.4-4-5.4-6.3-4.9c-2.3,0.5-8.1-2.3-7.6-0.3C545.1,317.4,545.1,317.4,545.1,317.4z"/>
		<g>
			<path class="st19" d="M546,325.6c0.3,4.9,0.9,9.9,4.5,11.6c5.8,2.9,6.3,4.9,9.4-2.2c3.1-7.1,1.4-13-1.4-14.5
				c-2.9-1.4-4-5.4-6.3-4.9c-2.3,0.5-8.1-2.3-7.6-0.3c0.5,2,0.5,2,0.5,2"/>
			<g>
				<path d="M545.1,317.4c-1,4-2.9,9.1-5.2,12.4l6.2-3.1l6.7,1.6C550,325.6,547,321.1,545.1,317.4z"/>
			</g>
		</g>
	</g>
</g>
<g id="Shape15_00000020386265581869474980000003430816869610022030_">
	<g id="shapePath15_00000067226108925514620640000000885679027408333737_">
		<path class="st36" d="M530,319.4c1.6,6-0.4,17,5.4,19.9c5.8,2.9,6.3,4.9,9.4-2.2c3.1-7.1,1.4-13-1.4-14.5c-2.9-1.4-4-5.4-6.3-4.9
			c-2.3,0.5-8.1-2.3-7.6-0.3C530,319.4,530,319.4,530,319.4z"/>
		<g>
			<path class="st19" d="M530.9,327.6c0.3,4.9,0.9,9.9,4.5,11.6c5.8,2.9,6.3,4.9,9.4-2.2c3.1-7.1,1.4-13-1.4-14.5
				c-2.9-1.4-4-5.4-6.3-4.9c-2.3,0.5-8.1-2.3-7.6-0.3c0.5,2,0.5,2,0.5,2"/>
			<g>
				<path d="M530,319.4c-1,4-2.9,9.1-5.2,12.4l6.2-3.1l6.7,1.6C534.9,327.6,531.9,323.1,530,319.4z"/>
			</g>
		</g>
	</g>
</g>
<g id="Shape16_00000141450945428989988130000008534130445256574337_">
	<g id="shapePath16_00000022539725960241940090000009957270903643417021_">
		<path class="st37" d="M512.6,321c1.6,6-0.4,17,5.4,19.9c5.8,2.9,6.3,4.9,9.4-2.2c3.1-7.1,1.4-13-1.4-14.5c-2.9-1.4-4-5.4-6.3-4.9
			c-2.3,0.5-8.1-2.3-7.6-0.3C512.6,321,512.6,321,512.6,321z"/>
		<g>
			<path class="st19" d="M513.5,329.3c0.3,4.9,0.9,9.9,4.5,11.6c5.8,2.9,6.3,4.9,9.4-2.2c3.1-7.1,1.4-13-1.4-14.5
				c-2.9-1.4-4-5.4-6.3-4.9c-2.3,0.5-8.1-2.3-7.6-0.3c0.5,2,0.5,2,0.5,2"/>
			<g>
				<path d="M512.6,321c-1,4-2.9,9.1-5.2,12.4l6.2-3.1l6.7,1.6C517.4,329.3,514.4,324.7,512.6,321z"/>
			</g>
		</g>
	</g>
</g>
<g id="Shape16_00000106844822417350007220000005941665898944349086_">
	<g id="shapePath16_00000070810211547628486460000004895644636289741219_">
		<path class="st20" d="M586.6,386c-8.7-14-11.8-41.4-29.1-46.7c-17.3-5.3-20.3-10-23,8c-2.8,18,6,32.1,14.6,34.7
			c8.7,2.7,14.5,12,20.3,10c5.8-2,23.1,3.3,20.2-1.4C586.6,386,586.6,386,586.6,386z"/>
		<g>
			<path class="st19" d="M584.5,382.3c-0.4-0.7-0.7-1.5-1.1-2.3"/>
			<path class="st50" d="M581.5,375.5c-5.7-14.2-10.5-32-24.1-36.2c-17.3-5.3-20.3-10-23,8c-2.8,18,6,32.1,14.6,34.7
				c8.7,2.7,14.5,12,20.3,10c5.8-2,23.1,3.3,20.2-1.4c-0.1-0.2-0.2-0.3-0.3-0.5"/>
			<path class="st19" d="M587.9,388.1c-1.3-2.1-1.3-2.1-1.3-2.1"/>
			<g>
				<polygon points="576.2,385.3 586.6,386 591.7,376.9 591.7,376.9 576.1,385.2 				"/>
			</g>
		</g>
	</g>
</g>
<path d="M576.4,339c1.1-0.2,2.2-0.5,3.3-0.2c1.5,0.3,2.7,1.5,3.7,2.6c4.1,4.6,7,11.1,3.4,15.1c-2.3,2.6-6.8,3.1-10.8,2.1
	c-4-1.1-7.4-3.5-10.3-6.3c3.2,3.9,3.3,9.4,0.3,12.7c-1.2,1.3-2.8,2.3-4.5,3.1c-9.1,4.7-22.1,6-31.4-0.4c-3.2-2.2-11-9.9-10.6-13.6
	c0.5-3.8,11.6-4.5,16.1-5.6C549.2,345.4,562.8,342.2,576.4,339z"/>
<path class="st51" d="M297.1,24.3c5.9,32.2,9,65.4,9,98.5c0,1.4,2.1,2.8,3.2,2.8c15.8,4.1,31.7,2.8,46.4,13.8
	c4.2,2.8,10.6,11,6.3,19.3c-22.2,1.4-44.3,1.4-66.7-5c0.8,16.9-1.8,34.1-7.4,49.4c11.5,0.1,23.1,0.2,34.6,0.4
	c5.4,0.1,18.3-0.2,18.1,10.7c-9.4-1.3-18.9-2.9-28.4-3.9c-11.4-3.2-27.2,5.1-25.1,24.4c13.7,5.5,29.5-1.4,43.3,6.9
	c1.1,6.9-1.1,12.4,0.7,19.4c-8.8,0-3.3-6.8,0,0c-16.5-0.1-32.4-0.1-49.2-0.1c-8.4,44.2-14.8,91.1-13.7,136.7
	c1.1,16.6,3.2,33.1,8.4,48.3c5.3,20.7,12.7,41.4,25.1,58.3"/>
</svg>
